<svg width="46" height="40" viewBox="0 0 46 40" fill="none" xmlns="http://www.w3.org/2000/svg">
<g id="Group">
<path id="Vector" d="M18.3704 26.5337H14.4601V14.3625H18.3704V26.5337Z" fill="#FF7C21"/>
<path id="Vector_2" d="M24.8827 26.5337H20.9739V14.3625H24.8827V26.5337Z" fill="#FF7C21"/>
<path id="Vector_3" d="M31.3965 26.5337H27.4863V14.3625H31.3965V26.5337Z" fill="#FF7C21"/>
<path id="Vector_4" fill-rule="evenodd" clip-rule="evenodd" d="M3.28698 18.9229C3.28698 15.7777 3.53527 14.0025 4.63734 11.2626C5.81637 8.32802 6.35217 8.20745 7.56169 6.39877L10.3467 9.11106C12.06 8.01568 11.9715 7.17454 15.8556 5.22786C22.0223 2.13786 29.1168 2.87005 34.797 6.79392C35.2878 7.13241 35.6682 7.40843 36.0719 7.80939C36.5205 8.25684 36.9242 8.45151 37.2887 8.88298C40.4337 12.6064 42.5217 16.2484 42.5217 21.8226C42.5217 25.3877 41.1844 29.7343 39.1211 32.4727C38.7552 32.9579 38.5243 33.2107 38.247 33.7366L35.3822 30.9517C33.1083 32.5541 33.6717 32.9507 29.699 34.9584C25.2341 37.2159 18.9542 37.383 14.3295 35.2141C13.3218 34.7419 12.2082 34.1695 11.3791 33.5841C10.3917 32.8882 9.76437 32.3478 8.89898 31.4819C5.55791 28.1377 3.28843 23.9073 3.28843 18.92L3.28698 18.9229ZM10.4614 4.7194L7.59798 1.78048C6.45525 2.55771 4.45729 4.94167 3.65144 6.15326C-0.264631 12.0311 -1.08501 19.6929 1.4531 26.1039C4.61412 34.0896 12.5102 40.0009 20.9957 40.0009C27.6125 40.0009 30.4076 38.6251 35.1934 35.4189L38.2107 38.3563C38.8089 37.9423 40.5891 35.968 41.061 35.3332C44.3614 30.9037 45.7263 27.1063 45.7263 21.0614C45.7263 15.5555 42.3867 8.57209 38.5519 5.63463C36.4029 3.98866 35.9368 3.31313 32.8034 1.91704C30.7866 1.01924 28.8714 0.462841 26.6063 0.175197C24.2133 -0.128428 22.1936 -0.0325467 19.911 0.425069C18.6797 0.672037 17.4383 0.997452 16.3275 1.42166C15.2545 1.83278 14.1292 2.36594 13.2173 2.89184C12.2096 3.47294 11.4008 4.0889 10.4628 4.71794L10.4614 4.7194Z" fill="#FF7C21"/>
</g>
</svg>
