<svg width="216" height="40" viewBox="0 0 216 40" fill="none" xmlns="http://www.w3.org/2000/svg">
<g clip-path="url(#clip0_109_879)">
<path d="M60.7635 19.6591C60.7635 13.1943 65.6829 9.0293 71.504 9.0293C74.4444 9.0293 77.8493 10.0767 79.9736 13.6883L76.6558 15.9894C75.4622 14.2418 73.6298 13.3977 71.6202 13.3977C68.2443 13.3977 65.5087 15.786 65.5087 19.6591C65.5087 23.5902 68.3024 25.9204 71.6507 25.9204C73.7459 25.9204 75.4637 25.0764 76.6572 23.3287L79.975 25.6299C77.8493 29.2414 74.4153 30.2888 71.475 30.2888C65.6539 30.2888 60.7635 26.1238 60.7635 19.6591Z" fill="#1B223B"/>
<path d="M91.9658 20.9404C91.6463 19.1927 90.1028 18.3487 88.5884 18.3487C87.0754 18.3487 85.5624 19.1346 85.0658 20.9404H91.9643H91.9658ZM80.8173 22.4556C80.8173 17.3303 84.6302 14.5643 88.5303 14.5643C92.3723 14.5643 96.8837 17.2431 95.9239 24.1742H85.1544C85.7657 25.8042 87.2801 26.6206 89.2868 26.6206C90.627 26.6206 91.8191 26.2996 92.9255 25.4555L94.9642 27.5824C93.7125 29.1542 91.5578 30.2903 88.7931 30.2903C84.6026 30.2903 80.8173 27.4371 80.8173 22.4571V22.4556Z" fill="#1B223B"/>
<path d="M98.0758 14.8534H102.589V18.9603C103.082 16.5139 104.539 14.5614 107.274 14.5614C107.623 14.5614 107.973 14.5905 108.352 14.7067V18.9879C108.002 18.9298 107.682 18.9008 107.305 18.9008C104.306 18.9008 102.59 20.9099 102.59 23.7646V29.9969H98.0773V14.8534H98.0758Z" fill="#1B223B"/>
<path d="M111.871 25.3379V18.4359H109.631V14.8534H111.871V10.9803H116.383V14.8534H119.555V18.4359H116.383V24.61C116.383 25.3669 116.82 26.1819 118.188 26.1819C118.536 26.1819 119.06 26.1238 119.613 25.9495V29.3867C119.031 29.9692 117.75 30.1726 116.702 30.1726C113.907 30.1726 111.87 28.8041 111.87 25.3379H111.871Z" fill="#1B223B"/>
<path d="M121.709 14.8533H126.221V29.9968H121.709V14.8533ZM121.709 9.31982H126.221V13.251H121.709V9.31982Z" fill="#1B223B"/>
<path d="M135.389 8.65013C136.118 8.65013 137.31 8.67919 138.243 9.23269V12.7556C137.427 12.4069 136.728 12.4651 136.612 12.4651C135.099 12.4651 134.459 13.3396 134.459 14.6195V14.8519H138.243V18.4344H134.459V29.9954H129.947V18.4344H127.939V14.8519H129.947V14.1531C129.947 9.37651 133.294 8.64868 135.391 8.64868L135.389 8.65013Z" fill="#1B223B"/>
<path d="M140.103 14.8533H144.615V29.9968H140.103V14.8533ZM140.103 9.31982H144.615V13.251H140.103V9.31982Z" fill="#1B223B"/>
<path d="M147.35 9.31982H151.862V20.5903L156.868 14.8533H162.253L156.316 21.4358L162.864 29.9968H157.887L153.521 24.4923L151.862 26.3562V29.9968H147.35V9.31982Z" fill="#1B223B"/>
<path d="M164.579 9.31982H176.544V13.543H169.178V17.5032H175.35V21.6682H169.178V25.7737H176.805V29.9968H164.579V9.31982Z" fill="#1B223B"/>
<path d="M186.962 25.6575C190.455 25.6575 192.26 23.182 192.26 19.6576C192.26 16.1333 190.455 13.6578 186.962 13.6578H183.702V25.656H186.962V25.6575ZM179.104 9.31987H187.137C192.668 9.31987 197.034 13.6011 197.034 19.6576C197.034 25.7156 192.668 29.9954 187.137 29.9954H179.104V9.31842V9.31987Z" fill="#1B223B"/>
<path d="M199.185 22.1636V9.31982H203.783V22.1912C203.783 25.2783 205.675 25.977 207.161 25.977C208.645 25.977 210.538 25.2783 210.538 22.1912V9.31982H215.137V22.1636C215.137 27.4632 211.556 30.2888 207.161 30.2888C202.736 30.2888 199.185 27.4632 199.185 22.1636Z" fill="#1B223B"/>
<path d="M18.3707 26.5337H14.4604V14.3625H18.3707V26.5337Z" fill="#FF7C21"/>
<path d="M24.883 26.5337H20.9742V14.3625H24.883V26.5337Z" fill="#FF7C21"/>
<path d="M31.3968 26.5337H27.4866V14.3625H31.3968V26.5337Z" fill="#FF7C21"/>
<path fill-rule="evenodd" clip-rule="evenodd" d="M3.28722 18.9229C3.28722 15.7777 3.53552 14.0025 4.63759 11.2626C5.81662 8.32802 6.35241 8.20745 7.56193 6.39877L10.3469 9.11106C12.0602 8.01568 11.9717 7.17454 15.8558 5.22786C22.0225 2.13786 29.117 2.87005 34.7972 6.79392C35.288 7.13241 35.6684 7.40843 36.0721 7.80939C36.5207 8.25684 36.9244 8.45151 37.2889 8.88298C40.4339 12.6064 42.5219 16.2484 42.5219 21.8226C42.5219 25.3877 41.1846 29.7343 39.1213 32.4727C38.7554 32.9579 38.5245 33.2107 38.2472 33.7366L35.3824 30.9517C33.1085 32.5541 33.6719 32.9507 29.6992 34.9584C25.2343 37.2159 18.9544 37.383 14.3297 35.2141C13.322 34.7419 12.2084 34.1695 11.3793 33.5841C10.3919 32.8882 9.76462 32.3478 8.89923 31.4819C5.55816 28.1377 3.28867 23.9073 3.28867 18.92L3.28722 18.9229ZM10.4616 4.7194L7.59823 1.78048C6.4555 2.55771 4.45754 4.94167 3.65168 6.15326C-0.264386 12.0311 -1.08477 19.6929 1.45334 26.1039C4.61436 34.0896 12.5104 40.0009 20.9959 40.0009C27.6127 40.0009 30.4078 38.6251 35.1936 35.4189L38.2109 38.3563C38.8091 37.9423 40.5893 35.968 41.0612 35.3332C44.3616 30.9037 45.7265 27.1063 45.7265 21.0614C45.7265 15.5555 42.3869 8.57209 38.5521 5.63463C36.4031 3.98866 35.937 3.31313 32.8036 1.91704C30.7868 1.01924 28.8716 0.462841 26.6065 0.175197C24.2135 -0.128428 22.1938 -0.0325466 19.9112 0.425069C18.6799 0.672037 17.4385 0.997452 16.3277 1.42166C15.2547 1.83278 14.1294 2.36594 13.2175 2.89184C12.2098 3.47294 11.401 4.0889 10.463 4.71794L10.4616 4.7194Z" fill="#FF7C21"/>
</g>
<defs>
<clipPath id="clip0_109_879">
<rect width="215.135" height="40" fill="white"/>
</clipPath>
</defs>
</svg>
